<mxfile host="app.diagrams.net" agent="Mozilla/5.0 (X11; Linux x86_64) AppleWebKit/537.36 (KHTML, like Gecko) Chrome/128.0.0.0 Safari/537.36" version="24.7.14">
  <diagram name="PÃ¡gina-1" id="JJCy2TIlvsyZjUuUj7gz">
    <mxGraphModel dx="1364" dy="1962" grid="1" gridSize="10" guides="1" tooltips="1" connect="1" arrows="1" fold="1" page="1" pageScale="1" pageWidth="827" pageHeight="1169" math="0" shadow="0">
      <root>
        <mxCell id="0" />
        <mxCell id="1" parent="0" />
        <mxCell id="Lb4S4Lgipoe_CazuFKkx-3" value="APPLICATION" style="rounded=0;whiteSpace=wrap;html=1;fillColor=#6a00ff;fontColor=#ffffff;strokeColor=#3700CC;" vertex="1" parent="1">
          <mxGeometry x="190" y="-230" width="230" height="110" as="geometry" />
        </mxCell>
        <mxCell id="Lb4S4Lgipoe_CazuFKkx-4" value="DATABASE" style="shape=cylinder3;whiteSpace=wrap;html=1;boundedLbl=1;backgroundOutline=1;size=15;fillColor=#d80073;fontColor=#ffffff;strokeColor=#A50040;" vertex="1" parent="1">
          <mxGeometry x="225" y="310" width="160" height="100" as="geometry" />
        </mxCell>
        <mxCell id="Lb4S4Lgipoe_CazuFKkx-6" value="WEBSERVICE" style="rounded=0;whiteSpace=wrap;html=1;fillColor=#0050ef;fontColor=#ffffff;strokeColor=#001DBC;" vertex="1" parent="1">
          <mxGeometry x="190" y="40" width="230" height="110" as="geometry" />
        </mxCell>
        <mxCell id="Lb4S4Lgipoe_CazuFKkx-7" value="" style="shape=flexArrow;endArrow=classic;startArrow=classic;html=1;rounded=0;fillColor=#fa6800;strokeColor=#C73500;" edge="1" parent="1">
          <mxGeometry width="100" height="100" relative="1" as="geometry">
            <mxPoint x="304.5" y="280" as="sourcePoint" />
            <mxPoint x="304.5" y="180" as="targetPoint" />
          </mxGeometry>
        </mxCell>
        <mxCell id="Lb4S4Lgipoe_CazuFKkx-8" value="" style="shape=flexArrow;endArrow=classic;startArrow=classic;html=1;rounded=0;fillColor=#fa6800;strokeColor=#C73500;" edge="1" parent="1">
          <mxGeometry width="100" height="100" relative="1" as="geometry">
            <mxPoint x="304.5" y="10" as="sourcePoint" />
            <mxPoint x="304.5" y="-90" as="targetPoint" />
          </mxGeometry>
        </mxCell>
        <mxCell id="Lb4S4Lgipoe_CazuFKkx-9" value="XML" style="shape=document;whiteSpace=wrap;html=1;boundedLbl=1;" vertex="1" parent="1">
          <mxGeometry x="334" y="-70" width="86" height="50" as="geometry" />
        </mxCell>
      </root>
    </mxGraphModel>
  </diagram>
</mxfile>
